PathFileType	4	(X/Y/Z)	/Users/mathieubourgeois/Desktop/Analyse/Traitement/Sujet_05/Data/Transformed_Sujet_05_velo_100.trc
DataRate	CameraRate	NumFrames	NumMarkers	Units	OrigDataRate	OrigDataStartFrame	OrigNumFrames
120.000000	120.000000	5	36	mm	120.000000	240	1924
Frame#	Time	RFHD			RANE			STRN			LANI			LKNE			T10			RHUM			RWRB			C7			LFWT			LTOE			RTOE			LWRA			LBWT			RBWT			RFWT			LKNI			RKNI			RKNE			LANE			RANI			LHEE			RHEE			LHUM			LRAD			RRAD			RWRA			LWRB			LFHD			LBHD			RBHD			RSHO			LSHO			CLAV			LCAR			RCAR			
		X1	Y1	Z1	X2	Y2	Z2	X3	Y3	Z3	X4	Y4	Z4	X5	Y5	Z5	X6	Y6	Z6	X7	Y7	Z7	X8	Y8	Z8	X9	Y9	Z9	X10	Y10	Z10	X11	Y11	Z11	X12	Y12	Z12	X13	Y13	Z13	X14	Y14	Z14	X15	Y15	Z15	X16	Y16	Z16	X17	Y17	Z17	X18	Y18	Z18	X19	Y19	Z19	X20	Y20	Z20	X21	Y21	Z21	X22	Y22	Z22	X23	Y23	Z23	X24	Y24	Z24	X25	Y25	Z25	X26	Y26	Z26	X27	Y27	Z27	X28	Y28	Z28	X29	Y29	Z29	X30	Y30	Z30	X31	Y31	Z31	X32	Y32	Z32	X33	Y33	Z33	X34	Y34	Z34	X35	Y35	Z35	X36	Y36	Z36	

241	2	142.3169860839843	1357.30712890625	117.799934387207	-141.4051361083985	318.5432739257812	201.729507446289	-195.1885070800781	1141.648803710938	32.35116195678702	-322.1955871582031	536.3866577148438	-70.60115814208991	-88.14113616943357	815.9432983398438	-182.5692749023438	-332.0952758789062	1348.796020507812	47.18042373657214	28.98600578308103	1039.564331054688	197.3517913818359	243.5195770263672	892.5292358398438	249.6054534912109	-105.6799774169922	1413.21484375	27.84678459167471	-365.6982727050781	1074.892578125	-78.31697845458996	-276.0748291015625	364.8204956054688	-78.99036407470709	35.45328521728513	229.2169342041016	160.4519195556641	279.1830139160156	940.78076171875	-153.3195953369141	-536.3670043945312	1098.205810546875	-3.451568603515758	-517.9512939453125	1101.749755859375	133.7176513671874	-349.2736511230469	1059.719360351562	166.811553955078	-79.7442169189453	787.8912353515625	-76.05426788330084	-103.5813827514649	678.0799560546875	117.372444152832	-124.7031555175782	718.0087890625	222.2917022705077	-345.805908203125	550.2088012695312	-149.9210662841797	-106.4273452758789	326.8795776367188	120.8737106323242	-408.8990783691406	558.8748168945312	-104.2678222656251	-198.4182739257813	293.6749877929688	156.3858947753906	21.96543884277346	1041.642700195312	-150.0935516357422	66.55871582031253	1071.816284179688	-197.3436584472657	68.43199157714841	1071.520141601562	249.926040649414	275.5233764648438	937.59228515625	199.7864074707031	249.1650848388672	887.9259643554688	-187.6253509521485	157.3221588134766	1359.324829101562	-28.46641731262213	33.76446914672852	1448.666381835938	-45.63152694702156	12.95296096801757	1470.898559570312	87.33392333984366	-25.59036827087404	1332.871948242188	177.5579833984374	-71.68477630615233	1325.77197265625	-127.8736801147462	-77.25798034667969	1267.131225585938	32.47009277343741	325.394287109375	937.7418212890625	-227.3884429931641	324.2981872558593	927.3450927734375	287.367919921875	
242	2.008333333333333	142.8442687988281	1357.556640625	115.4494171142577	-150.1552886962891	305.6630859375	201.6244201660156	-194.6543121337891	1141.435913085938	31.26035308837881	-315.7418212890625	551.0497436523438	-69.2991027832032	-82.03290557861325	829.3670043945312	-183.2888488769532	-331.7227783203125	1348.603637695312	46.93669891357409	28.47479820251462	1039.271850585938	196.7743835449218	243.3408050537109	892.4014282226562	249.6175079345703	-105.5586166381836	1413.254760742188	25.6406249999999	-365.4108581542969	1074.897705078125	-77.62758636474621	-265.3547973632812	380.8194885253906	-79.12151336669928	25.51712799072263	213.2647705078125	160.4342193603516	278.6339416503906	940.8421020507812	-153.5939025878907	-535.7169799804688	1098.218627929688	-2.477988004684581	-516.775634765625	1101.316772460938	134.7788696289061	-348.0606994628906	1058.438110351562	166.8780364990234	-70.49644470214842	802.42919921875	-76.49365997314459	-114.1485824584961	665.438232421875	116.2228164672851	-135.423324584961	705.787841796875	221.1394805908202	-338.7326049804688	564.5244750976562	-149.0996856689454	-114.5330581665039	313.9990234375	121.0885848999023	-402.9393310546875	572.4971923828125	-103.2869262695313	-206.9479064941407	282.0740051269531	155.7093811035156	20.89027404785158	1040.814331054688	-151.0266723632813	65.34681701660159	1070.85546875	-198.4321594238282	67.68302917480466	1071.171875	249.4429779052734	275.2534790039062	937.6700439453125	199.9056701660156	248.9392547607422	887.728515625	-187.7684783935547	157.5256652832031	1359.216186523438	-30.85113716125495	34.03376007080079	1448.591552734375	-47.99533081054695	13.54584312438964	1471.136840820312	84.9664764404296	-24.99874687194826	1333.065551757812	176.100601196289	-72.71823120117186	1325.1484375	-129.9897918701173	-76.94429016113281	1267.12451171875	30.73770904541007	325.1410522460938	937.5789794921875	-227.5879211425782	324.1661071777343	927.2074584960938	287.3904113769531	
243	2.016666666666667	143.4625854492188	1357.823852539062	113.2059860229491	-160.0381317138672	294.2665405273438	201.3940277099609	-194.1672210693359	1141.395385742188	30.10953712463369	-307.8232727050781	564.555908203125	-68.36834716796882	-76.43306732177732	842.8980712890625	-183.7200775146485	-331.1253967285156	1348.695678710938	46.61690139770495	28.17613601684568	1039.005615234375	196.2425842285156	243.2779541015625	892.2351684570312	249.6201019287109	-105.1572189331055	1413.421508789062	23.56742477416982	-365.333251953125	1075.319458007812	-76.53437805175793	-252.8745422363281	395.5999755859375	-78.91390991210943	14.15244102478025	198.1454467773438	160.5079650878906	278.2451171875	940.8130493164062	-153.8466339111328	-535.1045532226562	1098.644653320312	-1.623357415199413	-515.6469116210938	1101.303588867188	135.7230529785155	-347.0744323730469	1057.64990234375	167.7044982910155	-62.9847068786621	817.3543090820312	-76.73648834228523	-124.9803161621094	654.5569458007812	114.8291320800781	-146.453353881836	695.0797119140625	220.0246582031249	-330.99169921875	577.427001953125	-148.2109680175782	-123.4982147216797	302.48388671875	121.2227554321289	-395.1548767089844	584.071533203125	-102.5020980834962	-216.5787658691407	272.1767883300781	154.8511657714843	20.06316566467287	1040.05810546875	-151.9573364257813	64.33793640136722	1069.983032226562	-199.5097808837891	67.2825012207031	1070.909790039062	249.003189086914	275.1507873535156	937.6270751953125	199.9973602294922	248.7790679931641	887.52490234375	-187.8886108398438	157.9131927490234	1359.138916015625	-33.17061233520514	34.51106643676759	1448.62890625	-50.28839874267586	14.29750633239745	1471.5087890625	82.62001800537101	-24.2383670806885	1333.1962890625	174.6781616210937	-73.37828063964842	1324.643432617188	-132.0271301269532	-76.43126678466797	1267.392822265625	29.02346229553214	324.9632568359375	937.306396484375	-227.7725219726563	324.1483154296874	927.0255126953125	287.4340515136719	
244	2.025	144.1728057861328	1358.154296875	111.0460968017577	-170.9021911621094	284.4236145019531	201.1024475097656	-193.3967742919922	1141.66455078125	29.03145217895498	-299.1376953125	576.5632934570312	-67.55838775634773	-71.15096282958982	856.2110595703125	-183.7347106933594	-330.3701171875	1348.96630859375	46.35020065307604	28.16581153869626	1038.8017578125	195.8650817871093	243.3332214355468	892.0947875976562	249.605484008789	-104.5264587402344	1413.689331054688	21.65239524841299	-365.1889343261719	1075.656005859375	-76.13842010498058	-239.0346527099609	409.6548156738281	-78.82749176025396	1.45623266696928	184.0278015136719	160.6635894775391	278.0626220703125	940.8023071289062	-154.0977783203125	-534.4661865234375	1099.471313476562	-0.9734779000283615	-514.6212768554688	1101.739624023438	136.3895874023436	-346.2438659667969	1057.242553710938	167.9841156005859	-60.20840835571288	832.0361328125	-76.78311920166023	-137.6346893310547	645.1190795898438	113.8010101318359	-157.3820953369141	685.8378295898438	218.8399658203124	-322.6727600097656	588.9840087890625	-147.1349792480469	-133.104721069336	292.4619140625	121.345588684082	-387.5579833984375	593.861083984375	-101.2446670532227	-227.06787109375	263.9158935546875	153.7319183349609	19.48343086242678	1039.509399414062	-152.8145294189454	63.67102050781252	1069.197021484375	-200.5626220703126	67.22338104248044	1070.755981445312	248.5511779785156	275.1960754394531	937.5357666015625	200.0150451660156	248.7654724121094	887.3548583984375	-187.9691009521485	158.4323883056641	1359.132080078125	-35.33311080932624	35.1339225769043	1448.73095703125	-52.47286224365242	15.13507080078124	1471.922729492188	80.39566040039054	-23.31327819824221	1333.31201171875	173.2053680419921	-73.61125183105467	1324.192138671875	-133.9633178710938	-75.76622772216797	1267.76708984375	27.39526748657218	324.7234191894531	937.1427001953125	-227.7568969726563	324.2119140624999	926.90380859375	287.4457092285156	
245	2.033333333333333	145.0296783447266	1358.571655273438	109.0242309570312	-182.5795135498047	276.0031127929688	200.7142181396484	-192.6011199951172	1142.037231445312	27.90456581115713	-289.3759460449219	587.2803955078125	-66.59764099121101	-67.05062103271482	869.9276733398438	-183.4400024414063	-329.4375610351562	1349.369140625	46.02492904663073	28.41757202148435	1038.724487304688	195.4307708740234	243.4783020019531	891.9752197265625	249.5579376220703	-103.6654815673828	1413.97509765625	19.93569564819326	-365.1587219238281	1076.101318359375	-75.80709838867199	-222.0457611083984	423.0113525390625	-78.66065979003912	-12.47270679473879	171.0850372314453	160.8186492919922	278.0260620117188	940.751220703125	-154.3265991210938	-533.8419189453125	1100.72119140625	-0.5900459289552109	-513.7377319335938	1102.51123046875	136.8082733154296	-345.58251953125	1057.239501953125	168.0625610351562	-54.79293823242187	845.4918212890625	-76.80868530273443	-148.7841033935547	636.9448852539062	112.5168991088867	-167.9844970703125	678.02197265625	217.6636352539062	-313.6826782226562	598.8211059570312	-145.9881744384766	-143.7299499511719	283.8230895996094	121.4468460083008	-378.8190002441406	601.5042724609375	-99.36179351806649	-238.4073638916016	257.2016906738281	152.5545196533203	19.20411872863771	1039.025512695312	-153.6708374023438	63.26566314697268	1068.51708984375	-201.6241607666016	67.51878356933591	1070.74951171875	248.0374908447265	275.3769836425781	937.38818359375	199.9704437255859	248.8636322021485	887.1853637695312	-188.0480499267578	159.1298217773438	1359.200439453125	-37.38031387329108	35.92067337036134	1448.889038085938	-54.58773803710945	16.12310409545897	1472.397827148438	78.22998046874991	-22.12905502319338	1333.46826171875	171.7893676757812	-73.47657012939452	1323.88037109375	-135.6988372802735	-75.01028442382812	1268.171752929688	25.89668273925772	325.0477905273438	936.7569580078125	-228.0566864013672	324.3872375488281	926.773193359375	287.4069213867188	
